<?xml version="1.0" encoding="UTF-8"?><svg id="Capa_2" xmlns="http://www.w3.org/2000/svg" viewBox="0 0 24.67 29.86"><defs><style>.cls-1{fill:#ebebeb;}</style></defs><g id="Capa_1-2"><path class="cls-1" d="m20.57,0H4.11C1.84,0,0,1.84,0,4.11v21.64c0,2.27,1.84,4.11,4.11,4.11h16.46c2.27,0,4.11-1.84,4.11-4.11V4.11c0-2.27-1.84-4.11-4.11-4.11Zm3.11,25.75c0,1.71-1.39,3.11-3.11,3.11H4.11c-1.71,0-3.11-1.39-3.11-3.11V4.11c0-1.71,1.39-3.11,3.11-3.11h16.46c1.71,0,3.11,1.39,3.11,3.11v21.64Z"/><path class="cls-1" d="m10.34,26.06h.12c.25,0,.53-.03.86-.08.33-.05.67-.07,1.02-.07s.68.02,1.02.07c.3.04.59.08.94.08h.03c1.45-.07,5.01-2.03,6.15-7.41.87-4.13-.1-6.97-2.83-8.2-.38-.17-.83-.26-1.35-.26-.57,0-1.22.1-1.95.3l-.19.06c-.19.06-.58.19-1.03.27.12-.62.37-1.2.74-1.69.54-.71,1.31-1.22,2.17-1.45.37-.1.59-.48.49-.85-.08-.3-.36-.51-.67-.51h-.14s-.03.02-.03.02c-1.16.31-2.19,1-2.92,1.95-.26.34-.47.72-.64,1.11,0-.6-.14-2.71-1.53-4.1-1.44-1.44-3.69-1.53-4.25-1.53,0,0-.66.02-.66.02l-.02.65c0,.11-.07,2.67,1.53,4.26,1.45,1.45,3.72,1.53,4.16,1.53h.49c-.05.19-.1.4-.12.61-.48-.07-.92-.2-1.23-.3l-.19-.06c-.71-.2-1.36-.3-1.94-.3-.52,0-.98.09-1.35.26-2.73,1.24-3.7,4.08-2.83,8.21,1.14,5.38,4.7,7.34,6.15,7.41Zm-2.16-18.32c-.73-.73-.99-1.79-1.08-2.52.73.09,1.79.35,2.52,1.08.74.74.99,1.85,1.07,2.52-.73-.09-1.8-.35-2.52-1.07Zm-.59,3.97c.2-.09.46-.13.78-.13.44,0,.98.09,1.55.25l.16.05c.43.14,1.32.43,2.25.43s1.82-.29,2.25-.43l.15-.05c.59-.17,1.12-.25,1.56-.25.32,0,.58.05.78.13,2.09.95,2.78,3.19,2.05,6.66-1.08,5.08-4.28,6.28-4.91,6.31-.18,0-.42-.03-.69-.07-.36-.05-.77-.1-1.19-.1s-.82.05-1.21.11c-.25.04-.49.07-.71.07h0c-.59-.03-3.79-1.24-4.87-6.31-.74-3.47-.05-5.71,2.05-6.66Z"/></g></svg>